<svg width="40" height="41" viewBox="0 0 40 41" fill="none" xmlns="http://www.w3.org/2000/svg">
<path fill-rule="evenodd" clip-rule="evenodd" d="M18.0463 6.51606L18.0456 6.51125C14.3746 -18.6908 -22.612 37.6715 24.0205 33.6859L22.8932 40.3542C22.8932 40.3542 37.6571 37.0308 39.3581 23.8807C39.3581 23.8807 42.5772 3.41131 18.0463 6.51596V6.51606ZM12.2473 13.8685C8.7895 13.8685 5.96045 16.6975 5.96045 20.1554C5.96045 23.6132 8.7895 26.4422 12.2473 26.4422H16.2975C18.3685 25.8428 18.7847 23.8828 20.5573 24.0431C21.2066 24.1019 21.7094 24.463 22.0484 24.7958C22.6847 25.421 23.3097 26.0988 24.4939 26.4422H28.497C31.9548 26.4422 34.7838 23.6132 34.7838 20.1554C34.7838 16.6975 31.9548 13.8685 28.497 13.8685H12.2473ZM22.8438 21.7624C22.609 21.028 23.8427 18.7405 26.1491 18.1098C27.8524 17.6435 31.3097 18.2794 32.2275 19.1497C32.2473 19.8714 31.0172 20.8257 30.3296 21.1933C29.7012 21.5299 29.0602 21.7312 28.2429 21.8462C27.3385 21.9733 23.4192 21.99 22.8438 21.7624ZM14.5954 18.1098C16.9019 18.7404 18.1355 21.028 17.9007 21.7624C17.3254 21.99 13.4061 21.9733 12.5017 21.8462C11.6842 21.7312 11.0434 21.5299 10.4149 21.1933C9.72729 20.8256 8.49732 19.8714 8.51707 19.1497C9.43484 18.2794 12.8922 17.6434 14.5954 18.1098Z" fill="url(#paint0_linear_2189_12291)"/>
<defs>
<linearGradient id="paint0_linear_2189_12291" x1="37.3976" y1="24.4648" x2="14.6656" y2="28.2652" gradientUnits="userSpaceOnUse">
<stop stop-color="#0D9BE3"/>
<stop offset="1" stop-color="#02D8FD"/>
</linearGradient>
</defs>
</svg>
